<?xml version="1.0" encoding="UTF-8" standalone="no"?>
<!DOCTYPE svg PUBLIC "-//W3C//DTD SVG 1.1//EN"
 "http://www.w3.org/Graphics/SVG/1.1/DTD/svg11.dtd">
<!-- Generated by graphviz version 2.40.1 (0)
 -->
<!-- Title: snakemake_dag Pages: 1 -->
<svg width="1898pt" height="553pt"
 viewBox="0.00 0.00 1898.00 553.00" xmlns="http://www.w3.org/2000/svg" xmlns:xlink="http://www.w3.org/1999/xlink">
<g id="graph0" class="graph" transform="scale(1 1) rotate(0) translate(4 549)">
<title>snakemake_dag</title>
<polygon fill="#ffffff" stroke="transparent" points="-4,4 -4,-549 1894,-549 1894,4 -4,4"/>
<!-- 0 -->
<g id="node1" class="node">
<title>0</title>
<path fill="none" stroke="#d85e56" stroke-width="2" d="M958,-36C958,-36 928,-36 928,-36 922,-36 916,-30 916,-24 916,-24 916,-12 916,-12 916,-6 922,0 928,0 928,0 958,0 958,0 964,0 970,-6 970,-12 970,-12 970,-24 970,-24 970,-30 964,-36 958,-36"/>
<text text-anchor="middle" x="943" y="-15.5" font-family="sans" font-size="10.00" fill="#000000">all</text>
</g>
<!-- 1 -->
<g id="node2" class="node">
<title>1</title>
<path fill="none" stroke="#56d85b" stroke-width="2" d="M981.5,-108C981.5,-108 904.5,-108 904.5,-108 898.5,-108 892.5,-102 892.5,-96 892.5,-96 892.5,-84 892.5,-84 892.5,-78 898.5,-72 904.5,-72 904.5,-72 981.5,-72 981.5,-72 987.5,-72 993.5,-78 993.5,-84 993.5,-84 993.5,-96 993.5,-96 993.5,-102 987.5,-108 981.5,-108"/>
<text text-anchor="middle" x="943" y="-87.5" font-family="sans" font-size="10.00" fill="#000000">multiome_output</text>
</g>
<!-- 1&#45;&gt;0 -->
<g id="edge1" class="edge">
<title>1&#45;&gt;0</title>
<path fill="none" stroke="#c0c0c0" stroke-width="2" d="M943,-71.8314C943,-64.131 943,-54.9743 943,-46.4166"/>
<polygon fill="#c0c0c0" stroke="#c0c0c0" stroke-width="2" points="946.5001,-46.4132 943,-36.4133 939.5001,-46.4133 946.5001,-46.4132"/>
</g>
<!-- 2 -->
<g id="node3" class="node">
<title>2</title>
<path fill="none" stroke="#56d8d8" stroke-width="2" d="M986,-180C986,-180 900,-180 900,-180 894,-180 888,-174 888,-168 888,-168 888,-156 888,-156 888,-150 894,-144 900,-144 900,-144 986,-144 986,-144 992,-144 998,-150 998,-156 998,-156 998,-168 998,-168 998,-174 992,-180 986,-180"/>
<text text-anchor="middle" x="943" y="-159.5" font-family="sans" font-size="10.00" fill="#000000">atac_peaks_model</text>
</g>
<!-- 2&#45;&gt;1 -->
<g id="edge2" class="edge">
<title>2&#45;&gt;1</title>
<path fill="none" stroke="#c0c0c0" stroke-width="2" d="M943,-143.8314C943,-136.131 943,-126.9743 943,-118.4166"/>
<polygon fill="#c0c0c0" stroke="#c0c0c0" stroke-width="2" points="946.5001,-118.4132 943,-108.4133 939.5001,-118.4133 946.5001,-118.4132"/>
</g>
<!-- 3 -->
<g id="node4" class="node">
<title>3</title>
<path fill="none" stroke="#d8d356" stroke-width="2" d="M998,-252C998,-252 888,-252 888,-252 882,-252 876,-246 876,-240 876,-240 876,-228 876,-228 876,-222 882,-216 888,-216 888,-216 998,-216 998,-216 1004,-216 1010,-222 1010,-228 1010,-228 1010,-240 1010,-240 1010,-246 1004,-252 998,-252"/>
<text text-anchor="middle" x="943" y="-231.5" font-family="sans" font-size="10.00" fill="#000000">cistopic_merge_objects</text>
</g>
<!-- 3&#45;&gt;2 -->
<g id="edge3" class="edge">
<title>3&#45;&gt;2</title>
<path fill="none" stroke="#c0c0c0" stroke-width="2" d="M943,-215.8314C943,-208.131 943,-198.9743 943,-190.4166"/>
<polygon fill="#c0c0c0" stroke="#c0c0c0" stroke-width="2" points="946.5001,-190.4132 943,-180.4133 939.5001,-190.4133 946.5001,-190.4132"/>
</g>
<!-- 4 -->
<g id="node5" class="node">
<title>4</title>
<path fill="none" stroke="#d8b456" stroke-width="2" d="M695.5,-329C695.5,-329 586.5,-329 586.5,-329 580.5,-329 574.5,-323 574.5,-317 574.5,-317 574.5,-300 574.5,-300 574.5,-294 580.5,-288 586.5,-288 586.5,-288 695.5,-288 695.5,-288 701.5,-288 707.5,-294 707.5,-300 707.5,-300 707.5,-317 707.5,-317 707.5,-323 701.5,-329 695.5,-329"/>
<text text-anchor="middle" x="641" y="-317" font-family="sans" font-size="10.00" fill="#000000">cistopic_create_objects</text>
<text text-anchor="middle" x="641" y="-306" font-family="sans" font-size="10.00" fill="#000000">batch: batch1</text>
<text text-anchor="middle" x="641" y="-295" font-family="sans" font-size="10.00" fill="#000000">sample: SH00&#45;14&#45;ARC</text>
</g>
<!-- 4&#45;&gt;3 -->
<g id="edge4" class="edge">
<title>4&#45;&gt;3</title>
<path fill="none" stroke="#c0c0c0" stroke-width="2" d="M707.6995,-290.3917C710.8414,-289.5755 713.9538,-288.7746 717,-288 766.3287,-275.4567 821.9308,-262.1604 865.6402,-251.9002"/>
<polygon fill="#c0c0c0" stroke="#c0c0c0" stroke-width="2" points="866.6915,-255.2488 875.6293,-249.5597 865.0945,-248.4334 866.6915,-255.2488"/>
</g>
<!-- 5 -->
<g id="node6" class="node">
<title>5</title>
<path fill="none" stroke="#b6d856" stroke-width="2" d="M982.5,-401C982.5,-401 903.5,-401 903.5,-401 897.5,-401 891.5,-395 891.5,-389 891.5,-389 891.5,-377 891.5,-377 891.5,-371 897.5,-365 903.5,-365 903.5,-365 982.5,-365 982.5,-365 988.5,-365 994.5,-371 994.5,-377 994.5,-377 994.5,-389 994.5,-389 994.5,-395 988.5,-401 982.5,-401"/>
<text text-anchor="middle" x="943" y="-380.5" font-family="sans" font-size="10.00" fill="#000000">consensus_peaks</text>
</g>
<!-- 5&#45;&gt;4 -->
<g id="edge9" class="edge">
<title>5&#45;&gt;4</title>
<path fill="none" stroke="#c0c0c0" stroke-width="2" d="M891.2839,-371.0916C847.6489,-360.9424 783.2849,-345.7354 717.7919,-329.1697"/>
<polygon fill="#c0c0c0" stroke="#c0c0c0" stroke-width="2" points="718.2532,-325.6759 707.6995,-326.6083 716.5312,-332.4608 718.2532,-325.6759"/>
</g>
<!-- 34 -->
<g id="node35" class="node">
<title>34</title>
<path fill="none" stroke="#d8b456" stroke-width="2" d="M846.5,-329C846.5,-329 737.5,-329 737.5,-329 731.5,-329 725.5,-323 725.5,-317 725.5,-317 725.5,-300 725.5,-300 725.5,-294 731.5,-288 737.5,-288 737.5,-288 846.5,-288 846.5,-288 852.5,-288 858.5,-294 858.5,-300 858.5,-300 858.5,-317 858.5,-317 858.5,-323 852.5,-329 846.5,-329"/>
<text text-anchor="middle" x="792" y="-317" font-family="sans" font-size="10.00" fill="#000000">cistopic_create_objects</text>
<text text-anchor="middle" x="792" y="-306" font-family="sans" font-size="10.00" fill="#000000">batch: batch1</text>
<text text-anchor="middle" x="792" y="-295" font-family="sans" font-size="10.00" fill="#000000">sample: SH00&#45;19&#45;ARC</text>
</g>
<!-- 5&#45;&gt;34 -->
<g id="edge38" class="edge">
<title>5&#45;&gt;34</title>
<path fill="none" stroke="#c0c0c0" stroke-width="2" d="M906.4471,-364.9656C887.3632,-355.55 863.7075,-343.8789 842.8649,-333.5956"/>
<polygon fill="#c0c0c0" stroke="#c0c0c0" stroke-width="2" points="844.3372,-330.4192 833.8207,-329.1334 841.24,-336.6968 844.3372,-330.4192"/>
</g>
<!-- 35 -->
<g id="node36" class="node">
<title>35</title>
<path fill="none" stroke="#d8b456" stroke-width="2" d="M997.5,-329C997.5,-329 888.5,-329 888.5,-329 882.5,-329 876.5,-323 876.5,-317 876.5,-317 876.5,-300 876.5,-300 876.5,-294 882.5,-288 888.5,-288 888.5,-288 997.5,-288 997.5,-288 1003.5,-288 1009.5,-294 1009.5,-300 1009.5,-300 1009.5,-317 1009.5,-317 1009.5,-323 1003.5,-329 997.5,-329"/>
<text text-anchor="middle" x="943" y="-317" font-family="sans" font-size="10.00" fill="#000000">cistopic_create_objects</text>
<text text-anchor="middle" x="943" y="-306" font-family="sans" font-size="10.00" fill="#000000">batch: batch1</text>
<text text-anchor="middle" x="943" y="-295" font-family="sans" font-size="10.00" fill="#000000">sample: SH00&#45;30&#45;ARC</text>
</g>
<!-- 5&#45;&gt;35 -->
<g id="edge39" class="edge">
<title>5&#45;&gt;35</title>
<path fill="none" stroke="#c0c0c0" stroke-width="2" d="M943,-364.9656C943,-357.3118 943,-348.1674 943,-339.4898"/>
<polygon fill="#c0c0c0" stroke="#c0c0c0" stroke-width="2" points="946.5001,-339.2678 943,-329.2679 939.5001,-339.2679 946.5001,-339.2678"/>
</g>
<!-- 36 -->
<g id="node37" class="node">
<title>36</title>
<path fill="none" stroke="#d8b456" stroke-width="2" d="M1148.5,-329C1148.5,-329 1039.5,-329 1039.5,-329 1033.5,-329 1027.5,-323 1027.5,-317 1027.5,-317 1027.5,-300 1027.5,-300 1027.5,-294 1033.5,-288 1039.5,-288 1039.5,-288 1148.5,-288 1148.5,-288 1154.5,-288 1160.5,-294 1160.5,-300 1160.5,-300 1160.5,-317 1160.5,-317 1160.5,-323 1154.5,-329 1148.5,-329"/>
<text text-anchor="middle" x="1094" y="-317" font-family="sans" font-size="10.00" fill="#000000">cistopic_create_objects</text>
<text text-anchor="middle" x="1094" y="-306" font-family="sans" font-size="10.00" fill="#000000">batch: batch1</text>
<text text-anchor="middle" x="1094" y="-295" font-family="sans" font-size="10.00" fill="#000000">sample: SH00&#45;44&#45;ARC</text>
</g>
<!-- 5&#45;&gt;36 -->
<g id="edge40" class="edge">
<title>5&#45;&gt;36</title>
<path fill="none" stroke="#c0c0c0" stroke-width="2" d="M979.5529,-364.9656C998.6368,-355.55 1022.2925,-343.8789 1043.1351,-333.5956"/>
<polygon fill="#c0c0c0" stroke="#c0c0c0" stroke-width="2" points="1044.76,-336.6968 1052.1793,-329.1334 1041.6628,-330.4192 1044.76,-336.6968"/>
</g>
<!-- 37 -->
<g id="node38" class="node">
<title>37</title>
<path fill="none" stroke="#d8b456" stroke-width="2" d="M1299.5,-329C1299.5,-329 1190.5,-329 1190.5,-329 1184.5,-329 1178.5,-323 1178.5,-317 1178.5,-317 1178.5,-300 1178.5,-300 1178.5,-294 1184.5,-288 1190.5,-288 1190.5,-288 1299.5,-288 1299.5,-288 1305.5,-288 1311.5,-294 1311.5,-300 1311.5,-300 1311.5,-317 1311.5,-317 1311.5,-323 1305.5,-329 1299.5,-329"/>
<text text-anchor="middle" x="1245" y="-317" font-family="sans" font-size="10.00" fill="#000000">cistopic_create_objects</text>
<text text-anchor="middle" x="1245" y="-306" font-family="sans" font-size="10.00" fill="#000000">batch: batch1</text>
<text text-anchor="middle" x="1245" y="-295" font-family="sans" font-size="10.00" fill="#000000">sample: SH00&#45;48&#45;ARC</text>
</g>
<!-- 5&#45;&gt;37 -->
<g id="edge41" class="edge">
<title>5&#45;&gt;37</title>
<path fill="none" stroke="#c0c0c0" stroke-width="2" d="M994.5081,-371.2616C1038.3454,-361.155 1103.2327,-345.9222 1168.3473,-329.3904"/>
<polygon fill="#c0c0c0" stroke="#c0c0c0" stroke-width="2" points="1169.5485,-332.6962 1178.3742,-326.8346 1167.8196,-325.913 1169.5485,-332.6962"/>
</g>
<!-- 6 -->
<g id="node7" class="node">
<title>6</title>
<path fill="none" stroke="#56d89a" stroke-width="2" d="M106.5,-473C106.5,-473 17.5,-473 17.5,-473 11.5,-473 5.5,-467 5.5,-461 5.5,-461 5.5,-449 5.5,-449 5.5,-443 11.5,-437 17.5,-437 17.5,-437 106.5,-437 106.5,-437 112.5,-437 118.5,-443 118.5,-449 118.5,-449 118.5,-461 118.5,-461 118.5,-467 112.5,-473 106.5,-473"/>
<text text-anchor="middle" x="62" y="-452.5" font-family="sans" font-size="10.00" fill="#000000">cistopic_call_peaks</text>
</g>
<!-- 6&#45;&gt;5 -->
<g id="edge10" class="edge">
<title>6&#45;&gt;5</title>
<path fill="none" stroke="#c0c0c0" stroke-width="2" d="M118.5925,-439.1477C122.4359,-438.3409 126.2641,-437.6127 130,-437 274.5326,-413.2975 717.2018,-392.6077 881.1118,-385.5656"/>
<polygon fill="#c0c0c0" stroke="#c0c0c0" stroke-width="2" points="881.6576,-389.0456 891.499,-385.1216 881.3586,-382.052 881.6576,-389.0456"/>
</g>
<!-- 7 -->
<g id="node8" class="node">
<title>7</title>
<path fill="none" stroke="#56d892" stroke-width="2" stroke-dasharray="5,2" d="M104,-545C104,-545 12,-545 12,-545 6,-545 0,-539 0,-533 0,-533 0,-521 0,-521 0,-515 6,-509 12,-509 12,-509 104,-509 104,-509 110,-509 116,-515 116,-521 116,-521 116,-533 116,-533 116,-539 110,-545 104,-545"/>
<text text-anchor="middle" x="58" y="-530" font-family="sans" font-size="10.00" fill="#000000">cistopic_pseudobulk</text>
<text text-anchor="middle" x="58" y="-519" font-family="sans" font-size="10.00" fill="#000000">cell_type: Astro</text>
</g>
<!-- 7&#45;&gt;6 -->
<g id="edge24" class="edge">
<title>7&#45;&gt;6</title>
<path fill="none" stroke="#c0c0c0" stroke-width="2" d="M59.0094,-508.8314C59.4372,-501.131 59.9459,-491.9743 60.4213,-483.4166"/>
<polygon fill="#c0c0c0" stroke="#c0c0c0" stroke-width="2" points="63.9169,-483.592 60.977,-473.4133 56.9276,-483.2037 63.9169,-483.592"/>
</g>
<!-- 8 -->
<g id="node9" class="node">
<title>8</title>
<path fill="none" stroke="#56d89a" stroke-width="2" d="M239.5,-473C239.5,-473 150.5,-473 150.5,-473 144.5,-473 138.5,-467 138.5,-461 138.5,-461 138.5,-449 138.5,-449 138.5,-443 144.5,-437 150.5,-437 150.5,-437 239.5,-437 239.5,-437 245.5,-437 251.5,-443 251.5,-449 251.5,-449 251.5,-461 251.5,-461 251.5,-467 245.5,-473 239.5,-473"/>
<text text-anchor="middle" x="195" y="-452.5" font-family="sans" font-size="10.00" fill="#000000">cistopic_call_peaks</text>
</g>
<!-- 8&#45;&gt;5 -->
<g id="edge11" class="edge">
<title>8&#45;&gt;5</title>
<path fill="none" stroke="#c0c0c0" stroke-width="2" d="M251.6856,-439.3686C255.8352,-438.4841 259.9716,-437.6802 264,-437 489.1865,-398.9773 761.0323,-387.5909 880.9884,-384.2913"/>
<polygon fill="#c0c0c0" stroke="#c0c0c0" stroke-width="2" points="881.1816,-387.7875 891.085,-384.023 880.9956,-380.79 881.1816,-387.7875"/>
</g>
<!-- 9 -->
<g id="node10" class="node">
<title>9</title>
<path fill="none" stroke="#56d892" stroke-width="2" stroke-dasharray="5,2" d="M239.5,-545C239.5,-545 146.5,-545 146.5,-545 140.5,-545 134.5,-539 134.5,-533 134.5,-533 134.5,-521 134.5,-521 134.5,-515 140.5,-509 146.5,-509 146.5,-509 239.5,-509 239.5,-509 245.5,-509 251.5,-515 251.5,-521 251.5,-521 251.5,-533 251.5,-533 251.5,-539 245.5,-545 239.5,-545"/>
<text text-anchor="middle" x="193" y="-530" font-family="sans" font-size="10.00" fill="#000000">cistopic_pseudobulk</text>
<text text-anchor="middle" x="193" y="-519" font-family="sans" font-size="10.00" fill="#000000">cell_type: ExN_L2&#45;3</text>
</g>
<!-- 9&#45;&gt;8 -->
<g id="edge25" class="edge">
<title>9&#45;&gt;8</title>
<path fill="none" stroke="#c0c0c0" stroke-width="2" d="M193.5047,-508.8314C193.7186,-501.131 193.9729,-491.9743 194.2106,-483.4166"/>
<polygon fill="#c0c0c0" stroke="#c0c0c0" stroke-width="2" points="197.7094,-483.5066 194.4885,-473.4133 190.7121,-483.3122 197.7094,-483.5066"/>
</g>
<!-- 10 -->
<g id="node11" class="node">
<title>10</title>
<path fill="none" stroke="#56d89a" stroke-width="2" d="M373.5,-473C373.5,-473 284.5,-473 284.5,-473 278.5,-473 272.5,-467 272.5,-461 272.5,-461 272.5,-449 272.5,-449 272.5,-443 278.5,-437 284.5,-437 284.5,-437 373.5,-437 373.5,-437 379.5,-437 385.5,-443 385.5,-449 385.5,-449 385.5,-461 385.5,-461 385.5,-467 379.5,-473 373.5,-473"/>
<text text-anchor="middle" x="329" y="-452.5" font-family="sans" font-size="10.00" fill="#000000">cistopic_call_peaks</text>
</g>
<!-- 10&#45;&gt;5 -->
<g id="edge12" class="edge">
<title>10&#45;&gt;5</title>
<path fill="none" stroke="#c0c0c0" stroke-width="2" d="M385.7011,-439.4575C389.847,-438.5521 393.9784,-437.7192 398,-437 571.512,-405.9687 779.5224,-391.5628 881.0776,-385.9763"/>
<polygon fill="#c0c0c0" stroke="#c0c0c0" stroke-width="2" points="881.3619,-389.4661 891.1584,-385.4316 880.9841,-382.4763 881.3619,-389.4661"/>
</g>
<!-- 11 -->
<g id="node12" class="node">
<title>11</title>
<path fill="none" stroke="#56d892" stroke-width="2" stroke-dasharray="5,2" d="M374,-545C374,-545 282,-545 282,-545 276,-545 270,-539 270,-533 270,-533 270,-521 270,-521 270,-515 276,-509 282,-509 282,-509 374,-509 374,-509 380,-509 386,-515 386,-521 386,-521 386,-533 386,-533 386,-539 380,-545 374,-545"/>
<text text-anchor="middle" x="328" y="-530" font-family="sans" font-size="10.00" fill="#000000">cistopic_pseudobulk</text>
<text text-anchor="middle" x="328" y="-519" font-family="sans" font-size="10.00" fill="#000000">cell_type: ExN_L4</text>
</g>
<!-- 11&#45;&gt;10 -->
<g id="edge26" class="edge">
<title>11&#45;&gt;10</title>
<path fill="none" stroke="#c0c0c0" stroke-width="2" d="M328.2523,-508.8314C328.3593,-501.131 328.4865,-491.9743 328.6053,-483.4166"/>
<polygon fill="#c0c0c0" stroke="#c0c0c0" stroke-width="2" points="332.1049,-483.4609 328.7443,-473.4133 325.1056,-483.3637 332.1049,-483.4609"/>
</g>
<!-- 12 -->
<g id="node13" class="node">
<title>12</title>
<path fill="none" stroke="#56d89a" stroke-width="2" d="M507.5,-473C507.5,-473 418.5,-473 418.5,-473 412.5,-473 406.5,-467 406.5,-461 406.5,-461 406.5,-449 406.5,-449 406.5,-443 412.5,-437 418.5,-437 418.5,-437 507.5,-437 507.5,-437 513.5,-437 519.5,-443 519.5,-449 519.5,-449 519.5,-461 519.5,-461 519.5,-467 513.5,-473 507.5,-473"/>
<text text-anchor="middle" x="463" y="-452.5" font-family="sans" font-size="10.00" fill="#000000">cistopic_call_peaks</text>
</g>
<!-- 12&#45;&gt;5 -->
<g id="edge13" class="edge">
<title>12&#45;&gt;5</title>
<path fill="none" stroke="#c0c0c0" stroke-width="2" d="M519.8557,-440.1534C524.9605,-439.0123 530.0638,-437.9406 535,-437 656.7499,-413.8017 800.8298,-397.2485 881.0805,-388.986"/>
<polygon fill="#c0c0c0" stroke="#c0c0c0" stroke-width="2" points="881.9029,-392.4203 891.496,-387.9233 881.1924,-385.4565 881.9029,-392.4203"/>
</g>
<!-- 13 -->
<g id="node14" class="node">
<title>13</title>
<path fill="none" stroke="#56d892" stroke-width="2" stroke-dasharray="5,2" d="M508,-545C508,-545 416,-545 416,-545 410,-545 404,-539 404,-533 404,-533 404,-521 404,-521 404,-515 410,-509 416,-509 416,-509 508,-509 508,-509 514,-509 520,-515 520,-521 520,-521 520,-533 520,-533 520,-539 514,-545 508,-545"/>
<text text-anchor="middle" x="462" y="-530" font-family="sans" font-size="10.00" fill="#000000">cistopic_pseudobulk</text>
<text text-anchor="middle" x="462" y="-519" font-family="sans" font-size="10.00" fill="#000000">cell_type: ExN_L5</text>
</g>
<!-- 13&#45;&gt;12 -->
<g id="edge27" class="edge">
<title>13&#45;&gt;12</title>
<path fill="none" stroke="#c0c0c0" stroke-width="2" d="M462.2523,-508.8314C462.3593,-501.131 462.4865,-491.9743 462.6053,-483.4166"/>
<polygon fill="#c0c0c0" stroke="#c0c0c0" stroke-width="2" points="466.1049,-483.4609 462.7443,-473.4133 459.1056,-483.3637 466.1049,-483.4609"/>
</g>
<!-- 14 -->
<g id="node15" class="node">
<title>14</title>
<path fill="none" stroke="#56d89a" stroke-width="2" d="M644.5,-473C644.5,-473 555.5,-473 555.5,-473 549.5,-473 543.5,-467 543.5,-461 543.5,-461 543.5,-449 543.5,-449 543.5,-443 549.5,-437 555.5,-437 555.5,-437 644.5,-437 644.5,-437 650.5,-437 656.5,-443 656.5,-449 656.5,-449 656.5,-461 656.5,-461 656.5,-467 650.5,-473 644.5,-473"/>
<text text-anchor="middle" x="600" y="-452.5" font-family="sans" font-size="10.00" fill="#000000">cistopic_call_peaks</text>
</g>
<!-- 14&#45;&gt;5 -->
<g id="edge14" class="edge">
<title>14&#45;&gt;5</title>
<path fill="none" stroke="#c0c0c0" stroke-width="2" d="M656.5086,-441.0053C662.4074,-439.619 668.3205,-438.2603 674,-437 744.9192,-421.2632 826.8082,-405.1117 881.4277,-394.6247"/>
<polygon fill="#c0c0c0" stroke="#c0c0c0" stroke-width="2" points="882.1372,-398.0525 891.3003,-392.7338 880.8204,-391.1775 882.1372,-398.0525"/>
</g>
<!-- 15 -->
<g id="node16" class="node">
<title>15</title>
<path fill="none" stroke="#56d892" stroke-width="2" stroke-dasharray="5,2" d="M642,-545C642,-545 550,-545 550,-545 544,-545 538,-539 538,-533 538,-533 538,-521 538,-521 538,-515 544,-509 550,-509 550,-509 642,-509 642,-509 648,-509 654,-515 654,-521 654,-521 654,-533 654,-533 654,-539 648,-545 642,-545"/>
<text text-anchor="middle" x="596" y="-530" font-family="sans" font-size="10.00" fill="#000000">cistopic_pseudobulk</text>
<text text-anchor="middle" x="596" y="-519" font-family="sans" font-size="10.00" fill="#000000">cell_type: ExN_L6</text>
</g>
<!-- 15&#45;&gt;14 -->
<g id="edge28" class="edge">
<title>15&#45;&gt;14</title>
<path fill="none" stroke="#c0c0c0" stroke-width="2" d="M597.0094,-508.8314C597.4372,-501.131 597.9459,-491.9743 598.4213,-483.4166"/>
<polygon fill="#c0c0c0" stroke="#c0c0c0" stroke-width="2" points="601.9169,-483.592 598.977,-473.4133 594.9276,-483.2037 601.9169,-483.592"/>
</g>
<!-- 16 -->
<g id="node17" class="node">
<title>16</title>
<path fill="none" stroke="#56d89a" stroke-width="2" d="M783.5,-473C783.5,-473 694.5,-473 694.5,-473 688.5,-473 682.5,-467 682.5,-461 682.5,-461 682.5,-449 682.5,-449 682.5,-443 688.5,-437 694.5,-437 694.5,-437 783.5,-437 783.5,-437 789.5,-437 795.5,-443 795.5,-449 795.5,-449 795.5,-461 795.5,-461 795.5,-467 789.5,-473 783.5,-473"/>
<text text-anchor="middle" x="739" y="-452.5" font-family="sans" font-size="10.00" fill="#000000">cistopic_call_peaks</text>
</g>
<!-- 16&#45;&gt;5 -->
<g id="edge15" class="edge">
<title>16&#45;&gt;5</title>
<path fill="none" stroke="#c0c0c0" stroke-width="2" d="M790.2145,-436.9243C818.1025,-427.0815 852.7906,-414.8386 882.0627,-404.5073"/>
<polygon fill="#c0c0c0" stroke="#c0c0c0" stroke-width="2" points="883.4994,-407.7119 891.7644,-401.0831 881.1696,-401.1109 883.4994,-407.7119"/>
</g>
<!-- 17 -->
<g id="node18" class="node">
<title>17</title>
<path fill="none" stroke="#56d892" stroke-width="2" stroke-dasharray="5,2" d="M785.5,-545C785.5,-545 684.5,-545 684.5,-545 678.5,-545 672.5,-539 672.5,-533 672.5,-533 672.5,-521 672.5,-521 672.5,-515 678.5,-509 684.5,-509 684.5,-509 785.5,-509 785.5,-509 791.5,-509 797.5,-515 797.5,-521 797.5,-521 797.5,-533 797.5,-533 797.5,-539 791.5,-545 785.5,-545"/>
<text text-anchor="middle" x="735" y="-530" font-family="sans" font-size="10.00" fill="#000000">cistopic_pseudobulk</text>
<text text-anchor="middle" x="735" y="-519" font-family="sans" font-size="10.00" fill="#000000">cell_type: ExN_L5_ET</text>
</g>
<!-- 17&#45;&gt;16 -->
<g id="edge29" class="edge">
<title>17&#45;&gt;16</title>
<path fill="none" stroke="#c0c0c0" stroke-width="2" d="M736.0094,-508.8314C736.4372,-501.131 736.9459,-491.9743 737.4213,-483.4166"/>
<polygon fill="#c0c0c0" stroke="#c0c0c0" stroke-width="2" points="740.9169,-483.592 737.977,-473.4133 733.9276,-483.2037 740.9169,-483.592"/>
</g>
<!-- 18 -->
<g id="node19" class="node">
<title>18</title>
<path fill="none" stroke="#56d89a" stroke-width="2" d="M920.5,-473C920.5,-473 831.5,-473 831.5,-473 825.5,-473 819.5,-467 819.5,-461 819.5,-461 819.5,-449 819.5,-449 819.5,-443 825.5,-437 831.5,-437 831.5,-437 920.5,-437 920.5,-437 926.5,-437 932.5,-443 932.5,-449 932.5,-449 932.5,-461 932.5,-461 932.5,-467 926.5,-473 920.5,-473"/>
<text text-anchor="middle" x="876" y="-452.5" font-family="sans" font-size="10.00" fill="#000000">cistopic_call_peaks</text>
</g>
<!-- 18&#45;&gt;5 -->
<g id="edge16" class="edge">
<title>18&#45;&gt;5</title>
<path fill="none" stroke="#c0c0c0" stroke-width="2" d="M892.9069,-436.8314C900.7813,-428.3694 910.292,-418.1489 918.9013,-408.8971"/>
<polygon fill="#c0c0c0" stroke="#c0c0c0" stroke-width="2" points="921.6153,-411.1183 925.8654,-401.4133 916.4908,-406.3497 921.6153,-411.1183"/>
</g>
<!-- 19 -->
<g id="node20" class="node">
<title>19</title>
<path fill="none" stroke="#56d892" stroke-width="2" stroke-dasharray="5,2" d="M920,-545C920,-545 828,-545 828,-545 822,-545 816,-539 816,-533 816,-533 816,-521 816,-521 816,-515 822,-509 828,-509 828,-509 920,-509 920,-509 926,-509 932,-515 932,-521 932,-521 932,-533 932,-533 932,-539 926,-545 920,-545"/>
<text text-anchor="middle" x="874" y="-530" font-family="sans" font-size="10.00" fill="#000000">cistopic_pseudobulk</text>
<text text-anchor="middle" x="874" y="-519" font-family="sans" font-size="10.00" fill="#000000">cell_type: InN_SST</text>
</g>
<!-- 19&#45;&gt;18 -->
<g id="edge30" class="edge">
<title>19&#45;&gt;18</title>
<path fill="none" stroke="#c0c0c0" stroke-width="2" d="M874.5047,-508.8314C874.7186,-501.131 874.9729,-491.9743 875.2106,-483.4166"/>
<polygon fill="#c0c0c0" stroke="#c0c0c0" stroke-width="2" points="878.7094,-483.5066 875.4885,-473.4133 871.7121,-483.3122 878.7094,-483.5066"/>
</g>
<!-- 20 -->
<g id="node21" class="node">
<title>20</title>
<path fill="none" stroke="#56d89a" stroke-width="2" d="M1055.5,-473C1055.5,-473 966.5,-473 966.5,-473 960.5,-473 954.5,-467 954.5,-461 954.5,-461 954.5,-449 954.5,-449 954.5,-443 960.5,-437 966.5,-437 966.5,-437 1055.5,-437 1055.5,-437 1061.5,-437 1067.5,-443 1067.5,-449 1067.5,-449 1067.5,-461 1067.5,-461 1067.5,-467 1061.5,-473 1055.5,-473"/>
<text text-anchor="middle" x="1011" y="-452.5" font-family="sans" font-size="10.00" fill="#000000">cistopic_call_peaks</text>
</g>
<!-- 20&#45;&gt;5 -->
<g id="edge17" class="edge">
<title>20&#45;&gt;5</title>
<path fill="none" stroke="#c0c0c0" stroke-width="2" d="M993.8407,-436.8314C985.8489,-428.3694 976.1962,-418.1489 967.4584,-408.8971"/>
<polygon fill="#c0c0c0" stroke="#c0c0c0" stroke-width="2" points="969.8011,-406.2802 960.3903,-401.4133 964.712,-411.0866 969.8011,-406.2802"/>
</g>
<!-- 21 -->
<g id="node22" class="node">
<title>21</title>
<path fill="none" stroke="#56d892" stroke-width="2" stroke-dasharray="5,2" d="M1063.5,-545C1063.5,-545 962.5,-545 962.5,-545 956.5,-545 950.5,-539 950.5,-533 950.5,-533 950.5,-521 950.5,-521 950.5,-515 956.5,-509 962.5,-509 962.5,-509 1063.5,-509 1063.5,-509 1069.5,-509 1075.5,-515 1075.5,-521 1075.5,-521 1075.5,-533 1075.5,-533 1075.5,-539 1069.5,-545 1063.5,-545"/>
<text text-anchor="middle" x="1013" y="-530" font-family="sans" font-size="10.00" fill="#000000">cistopic_pseudobulk</text>
<text text-anchor="middle" x="1013" y="-519" font-family="sans" font-size="10.00" fill="#000000">cell_type: InN_PVALB</text>
</g>
<!-- 21&#45;&gt;20 -->
<g id="edge31" class="edge">
<title>21&#45;&gt;20</title>
<path fill="none" stroke="#c0c0c0" stroke-width="2" d="M1012.4953,-508.8314C1012.2814,-501.131 1012.0271,-491.9743 1011.7894,-483.4166"/>
<polygon fill="#c0c0c0" stroke="#c0c0c0" stroke-width="2" points="1015.2879,-483.3122 1011.5115,-473.4133 1008.2906,-483.5066 1015.2879,-483.3122"/>
</g>
<!-- 22 -->
<g id="node23" class="node">
<title>22</title>
<path fill="none" stroke="#56d89a" stroke-width="2" d="M1192.5,-473C1192.5,-473 1103.5,-473 1103.5,-473 1097.5,-473 1091.5,-467 1091.5,-461 1091.5,-461 1091.5,-449 1091.5,-449 1091.5,-443 1097.5,-437 1103.5,-437 1103.5,-437 1192.5,-437 1192.5,-437 1198.5,-437 1204.5,-443 1204.5,-449 1204.5,-449 1204.5,-461 1204.5,-461 1204.5,-467 1198.5,-473 1192.5,-473"/>
<text text-anchor="middle" x="1148" y="-452.5" font-family="sans" font-size="10.00" fill="#000000">cistopic_call_peaks</text>
</g>
<!-- 22&#45;&gt;5 -->
<g id="edge18" class="edge">
<title>22&#45;&gt;5</title>
<path fill="none" stroke="#c0c0c0" stroke-width="2" d="M1096.5345,-436.9243C1068.5098,-427.0815 1033.6516,-414.8386 1004.236,-404.5073"/>
<polygon fill="#c0c0c0" stroke="#c0c0c0" stroke-width="2" points="1005.0816,-401.0947 994.4867,-401.0831 1002.7619,-407.6992 1005.0816,-401.0947"/>
</g>
<!-- 23 -->
<g id="node24" class="node">
<title>23</title>
<path fill="none" stroke="#56d892" stroke-width="2" stroke-dasharray="5,2" d="M1198,-545C1198,-545 1106,-545 1106,-545 1100,-545 1094,-539 1094,-533 1094,-533 1094,-521 1094,-521 1094,-515 1100,-509 1106,-509 1106,-509 1198,-509 1198,-509 1204,-509 1210,-515 1210,-521 1210,-521 1210,-533 1210,-533 1210,-539 1204,-545 1198,-545"/>
<text text-anchor="middle" x="1152" y="-530" font-family="sans" font-size="10.00" fill="#000000">cistopic_pseudobulk</text>
<text text-anchor="middle" x="1152" y="-519" font-family="sans" font-size="10.00" fill="#000000">cell_type: InN_VIP</text>
</g>
<!-- 23&#45;&gt;22 -->
<g id="edge32" class="edge">
<title>23&#45;&gt;22</title>
<path fill="none" stroke="#c0c0c0" stroke-width="2" d="M1150.9906,-508.8314C1150.5628,-501.131 1150.0541,-491.9743 1149.5787,-483.4166"/>
<polygon fill="#c0c0c0" stroke="#c0c0c0" stroke-width="2" points="1153.0724,-483.2037 1149.023,-473.4133 1146.0831,-483.592 1153.0724,-483.2037"/>
</g>
<!-- 24 -->
<g id="node25" class="node">
<title>24</title>
<path fill="none" stroke="#56d89a" stroke-width="2" d="M1330.5,-473C1330.5,-473 1241.5,-473 1241.5,-473 1235.5,-473 1229.5,-467 1229.5,-461 1229.5,-461 1229.5,-449 1229.5,-449 1229.5,-443 1235.5,-437 1241.5,-437 1241.5,-437 1330.5,-437 1330.5,-437 1336.5,-437 1342.5,-443 1342.5,-449 1342.5,-449 1342.5,-461 1342.5,-461 1342.5,-467 1336.5,-473 1330.5,-473"/>
<text text-anchor="middle" x="1286" y="-452.5" font-family="sans" font-size="10.00" fill="#000000">cistopic_call_peaks</text>
</g>
<!-- 24&#45;&gt;5 -->
<g id="edge19" class="edge">
<title>24&#45;&gt;5</title>
<path fill="none" stroke="#c0c0c0" stroke-width="2" d="M1229.4642,-440.5921C1224.2438,-439.3445 1219.0287,-438.1289 1214,-437 1142.393,-420.9247 1059.5946,-404.7787 1004.5505,-394.3869"/>
<polygon fill="#c0c0c0" stroke="#c0c0c0" stroke-width="2" points="1005.0794,-390.925 994.6045,-392.5148 1003.7844,-397.8042 1005.0794,-390.925"/>
</g>
<!-- 25 -->
<g id="node26" class="node">
<title>25</title>
<path fill="none" stroke="#56d892" stroke-width="2" stroke-dasharray="5,2" d="M1341.5,-545C1341.5,-545 1240.5,-545 1240.5,-545 1234.5,-545 1228.5,-539 1228.5,-533 1228.5,-533 1228.5,-521 1228.5,-521 1228.5,-515 1234.5,-509 1240.5,-509 1240.5,-509 1341.5,-509 1341.5,-509 1347.5,-509 1353.5,-515 1353.5,-521 1353.5,-521 1353.5,-533 1353.5,-533 1353.5,-539 1347.5,-545 1341.5,-545"/>
<text text-anchor="middle" x="1291" y="-530" font-family="sans" font-size="10.00" fill="#000000">cistopic_pseudobulk</text>
<text text-anchor="middle" x="1291" y="-519" font-family="sans" font-size="10.00" fill="#000000">cell_type: InN_LAMP5</text>
</g>
<!-- 25&#45;&gt;24 -->
<g id="edge33" class="edge">
<title>25&#45;&gt;24</title>
<path fill="none" stroke="#c0c0c0" stroke-width="2" d="M1289.7383,-508.8314C1289.2035,-501.131 1288.5677,-491.9743 1287.9734,-483.4166"/>
<polygon fill="#c0c0c0" stroke="#c0c0c0" stroke-width="2" points="1291.4632,-483.1467 1287.2787,-473.4133 1284.48,-483.6317 1291.4632,-483.1467"/>
</g>
<!-- 26 -->
<g id="node27" class="node">
<title>26</title>
<path fill="none" stroke="#56d89a" stroke-width="2" d="M1468.5,-473C1468.5,-473 1379.5,-473 1379.5,-473 1373.5,-473 1367.5,-467 1367.5,-461 1367.5,-461 1367.5,-449 1367.5,-449 1367.5,-443 1373.5,-437 1379.5,-437 1379.5,-437 1468.5,-437 1468.5,-437 1474.5,-437 1480.5,-443 1480.5,-449 1480.5,-449 1480.5,-461 1480.5,-461 1480.5,-467 1474.5,-473 1468.5,-473"/>
<text text-anchor="middle" x="1424" y="-452.5" font-family="sans" font-size="10.00" fill="#000000">cistopic_call_peaks</text>
</g>
<!-- 26&#45;&gt;5 -->
<g id="edge20" class="edge">
<title>26&#45;&gt;5</title>
<path fill="none" stroke="#c0c0c0" stroke-width="2" d="M1367.1446,-440.1517C1362.0397,-439.011 1356.9364,-437.9398 1352,-437 1229.704,-413.7178 1084.93,-397.1575 1004.58,-388.9242"/>
<polygon fill="#c0c0c0" stroke="#c0c0c0" stroke-width="2" points="1004.9331,-385.4421 994.6306,-387.9136 1004.2257,-392.4063 1004.9331,-385.4421"/>
</g>
<!-- 27 -->
<g id="node28" class="node">
<title>27</title>
<path fill="none" stroke="#56d892" stroke-width="2" stroke-dasharray="5,2" d="M1476,-545C1476,-545 1384,-545 1384,-545 1378,-545 1372,-539 1372,-533 1372,-533 1372,-521 1372,-521 1372,-515 1378,-509 1384,-509 1384,-509 1476,-509 1476,-509 1482,-509 1488,-515 1488,-521 1488,-521 1488,-533 1488,-533 1488,-539 1482,-545 1476,-545"/>
<text text-anchor="middle" x="1430" y="-530" font-family="sans" font-size="10.00" fill="#000000">cistopic_pseudobulk</text>
<text text-anchor="middle" x="1430" y="-519" font-family="sans" font-size="10.00" fill="#000000">cell_type: MG</text>
</g>
<!-- 27&#45;&gt;26 -->
<g id="edge34" class="edge">
<title>27&#45;&gt;26</title>
<path fill="none" stroke="#c0c0c0" stroke-width="2" d="M1428.4859,-508.8314C1427.8442,-501.131 1427.0812,-491.9743 1426.3681,-483.4166"/>
<polygon fill="#c0c0c0" stroke="#c0c0c0" stroke-width="2" points="1429.8529,-483.088 1425.5344,-473.4133 1422.8771,-483.6694 1429.8529,-483.088"/>
</g>
<!-- 28 -->
<g id="node29" class="node">
<title>28</title>
<path fill="none" stroke="#56d89a" stroke-width="2" d="M1604.5,-473C1604.5,-473 1515.5,-473 1515.5,-473 1509.5,-473 1503.5,-467 1503.5,-461 1503.5,-461 1503.5,-449 1503.5,-449 1503.5,-443 1509.5,-437 1515.5,-437 1515.5,-437 1604.5,-437 1604.5,-437 1610.5,-437 1616.5,-443 1616.5,-449 1616.5,-449 1616.5,-461 1616.5,-461 1616.5,-467 1610.5,-473 1604.5,-473"/>
<text text-anchor="middle" x="1560" y="-452.5" font-family="sans" font-size="10.00" fill="#000000">cistopic_call_peaks</text>
</g>
<!-- 28&#45;&gt;5 -->
<g id="edge21" class="edge">
<title>28&#45;&gt;5</title>
<path fill="none" stroke="#c0c0c0" stroke-width="2" d="M1503.2366,-439.6274C1498.7754,-438.657 1494.3247,-437.7649 1490,-437 1315.5707,-406.1512 1106.5036,-391.6478 1004.7394,-386.005"/>
<polygon fill="#c0c0c0" stroke="#c0c0c0" stroke-width="2" points="1004.8157,-382.5041 994.64,-385.4547 1004.4348,-389.4937 1004.8157,-382.5041"/>
</g>
<!-- 29 -->
<g id="node30" class="node">
<title>29</title>
<path fill="none" stroke="#56d892" stroke-width="2" stroke-dasharray="5,2" d="M1610,-545C1610,-545 1518,-545 1518,-545 1512,-545 1506,-539 1506,-533 1506,-533 1506,-521 1506,-521 1506,-515 1512,-509 1518,-509 1518,-509 1610,-509 1610,-509 1616,-509 1622,-515 1622,-521 1622,-521 1622,-533 1622,-533 1622,-539 1616,-545 1610,-545"/>
<text text-anchor="middle" x="1564" y="-530" font-family="sans" font-size="10.00" fill="#000000">cistopic_pseudobulk</text>
<text text-anchor="middle" x="1564" y="-519" font-family="sans" font-size="10.00" fill="#000000">cell_type: OPC</text>
</g>
<!-- 29&#45;&gt;28 -->
<g id="edge35" class="edge">
<title>29&#45;&gt;28</title>
<path fill="none" stroke="#c0c0c0" stroke-width="2" d="M1562.9906,-508.8314C1562.5628,-501.131 1562.0541,-491.9743 1561.5787,-483.4166"/>
<polygon fill="#c0c0c0" stroke="#c0c0c0" stroke-width="2" points="1565.0724,-483.2037 1561.023,-473.4133 1558.0831,-483.592 1565.0724,-483.2037"/>
</g>
<!-- 30 -->
<g id="node31" class="node">
<title>30</title>
<path fill="none" stroke="#56d89a" stroke-width="2" d="M1739.5,-473C1739.5,-473 1650.5,-473 1650.5,-473 1644.5,-473 1638.5,-467 1638.5,-461 1638.5,-461 1638.5,-449 1638.5,-449 1638.5,-443 1644.5,-437 1650.5,-437 1650.5,-437 1739.5,-437 1739.5,-437 1745.5,-437 1751.5,-443 1751.5,-449 1751.5,-449 1751.5,-461 1751.5,-461 1751.5,-467 1745.5,-473 1739.5,-473"/>
<text text-anchor="middle" x="1695" y="-452.5" font-family="sans" font-size="10.00" fill="#000000">cistopic_call_peaks</text>
</g>
<!-- 30&#45;&gt;5 -->
<g id="edge22" class="edge">
<title>30&#45;&gt;5</title>
<path fill="none" stroke="#c0c0c0" stroke-width="2" d="M1638.3147,-439.3665C1634.1651,-438.4825 1630.0286,-437.6793 1626,-437 1399.2015,-398.7591 1125.3514,-387.4789 1004.9222,-384.2483"/>
<polygon fill="#c0c0c0" stroke="#c0c0c0" stroke-width="2" points="1004.8754,-380.746 994.7881,-383.9859 1004.6942,-387.7437 1004.8754,-380.746"/>
</g>
<!-- 31 -->
<g id="node32" class="node">
<title>31</title>
<path fill="none" stroke="#56d892" stroke-width="2" stroke-dasharray="5,2" d="M1744,-545C1744,-545 1652,-545 1652,-545 1646,-545 1640,-539 1640,-533 1640,-533 1640,-521 1640,-521 1640,-515 1646,-509 1652,-509 1652,-509 1744,-509 1744,-509 1750,-509 1756,-515 1756,-521 1756,-521 1756,-533 1756,-533 1756,-539 1750,-545 1744,-545"/>
<text text-anchor="middle" x="1698" y="-530" font-family="sans" font-size="10.00" fill="#000000">cistopic_pseudobulk</text>
<text text-anchor="middle" x="1698" y="-519" font-family="sans" font-size="10.00" fill="#000000">cell_type: Oligo</text>
</g>
<!-- 31&#45;&gt;30 -->
<g id="edge36" class="edge">
<title>31&#45;&gt;30</title>
<path fill="none" stroke="#c0c0c0" stroke-width="2" d="M1697.243,-508.8314C1696.9221,-501.131 1696.5406,-491.9743 1696.184,-483.4166"/>
<polygon fill="#c0c0c0" stroke="#c0c0c0" stroke-width="2" points="1699.6806,-483.2589 1695.7672,-473.4133 1692.6867,-483.5503 1699.6806,-483.2589"/>
</g>
<!-- 32 -->
<g id="node33" class="node">
<title>32</title>
<path fill="none" stroke="#56d89a" stroke-width="2" d="M1874.5,-473C1874.5,-473 1785.5,-473 1785.5,-473 1779.5,-473 1773.5,-467 1773.5,-461 1773.5,-461 1773.5,-449 1773.5,-449 1773.5,-443 1779.5,-437 1785.5,-437 1785.5,-437 1874.5,-437 1874.5,-437 1880.5,-437 1886.5,-443 1886.5,-449 1886.5,-449 1886.5,-461 1886.5,-461 1886.5,-467 1880.5,-473 1874.5,-473"/>
<text text-anchor="middle" x="1830" y="-452.5" font-family="sans" font-size="10.00" fill="#000000">cistopic_call_peaks</text>
</g>
<!-- 32&#45;&gt;5 -->
<g id="edge23" class="edge">
<title>32&#45;&gt;5</title>
<path fill="none" stroke="#c0c0c0" stroke-width="2" d="M1773.3246,-439.3069C1769.1726,-438.4369 1765.0329,-437.6531 1761,-437 1615.4491,-413.4288 1169.6441,-392.6386 1004.9721,-385.569"/>
<polygon fill="#c0c0c0" stroke="#c0c0c0" stroke-width="2" points="1004.6785,-382.0533 994.5382,-385.1233 1004.3797,-389.047 1004.6785,-382.0533"/>
</g>
<!-- 33 -->
<g id="node34" class="node">
<title>33</title>
<path fill="none" stroke="#56d892" stroke-width="2" stroke-dasharray="5,2" d="M1878,-545C1878,-545 1786,-545 1786,-545 1780,-545 1774,-539 1774,-533 1774,-533 1774,-521 1774,-521 1774,-515 1780,-509 1786,-509 1786,-509 1878,-509 1878,-509 1884,-509 1890,-515 1890,-521 1890,-521 1890,-533 1890,-533 1890,-539 1884,-545 1878,-545"/>
<text text-anchor="middle" x="1832" y="-530" font-family="sans" font-size="10.00" fill="#000000">cistopic_pseudobulk</text>
<text text-anchor="middle" x="1832" y="-519" font-family="sans" font-size="10.00" fill="#000000">cell_type: VC</text>
</g>
<!-- 33&#45;&gt;32 -->
<g id="edge37" class="edge">
<title>33&#45;&gt;32</title>
<path fill="none" stroke="#c0c0c0" stroke-width="2" d="M1831.4953,-508.8314C1831.2814,-501.131 1831.0271,-491.9743 1830.7894,-483.4166"/>
<polygon fill="#c0c0c0" stroke="#c0c0c0" stroke-width="2" points="1834.2879,-483.3122 1830.5115,-473.4133 1827.2906,-483.5066 1834.2879,-483.3122"/>
</g>
<!-- 34&#45;&gt;3 -->
<g id="edge5" class="edge">
<title>34&#45;&gt;3</title>
<path fill="none" stroke="#c0c0c0" stroke-width="2" d="M833.6611,-287.9453C853.4192,-278.1972 877.0755,-266.5256 897.3225,-256.5362"/>
<polygon fill="#c0c0c0" stroke="#c0c0c0" stroke-width="2" points="898.9397,-259.6412 906.359,-252.0778 895.8425,-253.3637 898.9397,-259.6412"/>
</g>
<!-- 35&#45;&gt;3 -->
<g id="edge6" class="edge">
<title>35&#45;&gt;3</title>
<path fill="none" stroke="#c0c0c0" stroke-width="2" d="M943,-287.7476C943,-279.8767 943,-270.7743 943,-262.3232"/>
<polygon fill="#c0c0c0" stroke="#c0c0c0" stroke-width="2" points="946.5001,-262.1086 943,-252.1087 939.5001,-262.1087 946.5001,-262.1086"/>
</g>
<!-- 36&#45;&gt;3 -->
<g id="edge7" class="edge">
<title>36&#45;&gt;3</title>
<path fill="none" stroke="#c0c0c0" stroke-width="2" d="M1052.3389,-287.9453C1032.5808,-278.1972 1008.9245,-266.5256 988.6775,-256.5362"/>
<polygon fill="#c0c0c0" stroke="#c0c0c0" stroke-width="2" points="990.1575,-253.3637 979.641,-252.0778 987.0603,-259.6412 990.1575,-253.3637"/>
</g>
<!-- 37&#45;&gt;3 -->
<g id="edge8" class="edge">
<title>37&#45;&gt;3</title>
<path fill="none" stroke="#c0c0c0" stroke-width="2" d="M1178.3742,-290.1654C1175.547,-289.4264 1172.7464,-288.7018 1170,-288 1120.193,-275.2726 1063.985,-261.894 1019.9612,-251.6373"/>
<polygon fill="#c0c0c0" stroke="#c0c0c0" stroke-width="2" points="1020.7226,-248.2211 1010.1898,-249.3654 1019.1373,-255.0392 1020.7226,-248.2211"/>
</g>
</g>
</svg>
